# xmcd CD Database Entry
#
# Track frame offsets:
# 150
# 8573
# 21090
# 29993
# 41863
# 52546
# 63851
# 78044
# 94075
# 105351
# 116615
# 131331
# 143026
# 158747
# 177205
#
# Disc length: 2540 seconds
#
# Revision: 1
# Processed by: cddbd v1.4PL0 Copyright (c) Steve Scherf et al.
# Submitted via: tcd 2.0b
#
DISCID=ae09ea0f
DTITLE=Mano Solo - La Marmaille Nue
DYEAR=1900
DGENRE=
TTITLE0=La barre est dure
TTITLE1=Allo Paris
TTITLE2=Je marche seul
TTITLE3=Sacré Coeur
TTITLE4=Chacun sa peine
TTITLE5=15 ans du matin
TTITLE6=Pas du gâteau
TTITLE7=Julie
TTITLE8=Allez viens
TTITLE9=Toujours quand tu dors
TTITLE10=Au creux de ton bras
TTITLE11=Le monde entier
TTITLE12=La lune
TTITLE13=On boira de la bière
TTITLE14=Trop de silence
EXTD=1993
EXTT0=
EXTT1=
EXTT2=
EXTT3=
EXTT4=
EXTT5=
EXTT6=
EXTT7=
EXTT8=
EXTT9=
EXTT10=
EXTT11=
EXTT12=
EXTT13=
EXTT14=
PLAYORDER=
